<?xml version="1.0" encoding="utf-8"?>
<!-- Generator: Adobe Illustrator 24.0.1, SVG Export Plug-In . SVG Version: 6.00 Build 0)  -->
<svg version="1.1" id="Calque_1" xmlns="http://www.w3.org/2000/svg" xmlns:xlink="http://www.w3.org/1999/xlink" x="0px" y="0px"
	 viewBox="0 0 1190.55 841.89" style="enable-background:new 0 0 1190.55 841.89;" xml:space="preserve">
<path d="M773.3,378.76c0,65.46,0,130.39,0,195.73c-43.44,0-86.5,0-130.3,0c0-1.74,0-3.66,0-5.58c0-36.49,0-72.99,0-109.48
	c0-10.1-4.09-14.19-14.27-14.21c-22.83-0.03-45.66-0.02-68.49-0.01c-11.21,0-15.11,3.86-15.11,14.93c-0.01,36,0,71.99,0,107.99
	c0,1.99,0,3.99,0,6.37c-43.6,0-87.01,0-130.99,0c0-64.85,0-129.89,0-195.41c-2.13-0.13-3.72-0.31-5.31-0.32
	c-9.5-0.03-19,0.02-28.5-0.02c-9.45-0.04-15.56-3.6-18.18-10.49c-2.72-7.14-0.73-13.35,6.54-19.85
	C424.1,298.9,479.53,249.4,534.97,199.9c16.03-14.32,32.11-28.58,48.09-42.96c7.93-7.14,11.84-8.22,21.24,0.1
	c57.75,51.15,115.1,102.77,172.58,154.23c14.03,12.56,28.06,25.12,42.08,37.69c6.8,6.09,8.59,12.11,5.84,19.54
	c-2.39,6.47-8.16,10.11-16.75,10.23c-9.66,0.13-19.33,0.03-29,0.04C777.25,378.77,775.46,378.76,773.3,378.76z"/>
</svg>
