<?xml version="1.0" encoding="utf-8"?>
<!-- Generator: Adobe Illustrator 24.0.1, SVG Export Plug-In . SVG Version: 6.00 Build 0)  -->
<svg version="1.1" id="Calque_1" xmlns="http://www.w3.org/2000/svg" xmlns:xlink="http://www.w3.org/1999/xlink" x="0px" y="0px"
	 viewBox="0 0 1190.55 841.89" style="enable-background:new 0 0 1190.55 841.89;" xml:space="preserve">
<style type="text/css">
	.st0{fill:#FFFFFF;}
</style>
<path d="M345.29,370.14c0.95-138.87,112.85-249.27,250.3-248.86c138.78,0.41,249.34,112.49,248.99,250.07
	C844.21,511,731.19,621.03,594.14,620.45C454.98,619.87,345.25,507.28,345.29,370.14z M622.47,370.54c-2.83,2.4-4.33,3.49-5.62,4.78
	c-25.1,25.07-50.14,50.21-75.3,75.23c-6.88,6.85-9.54,14.82-6.89,24.11c4.96,17.32,26.07,22.44,39.23,9.45
	c20.98-20.71,41.69-41.7,62.59-62.49c11.33-11.27,22.8-22.41,34.26-33.55c9.74-9.47,9.51-25.61-0.52-34.83
	c-4.65-4.28-9.28-8.6-13.75-13.06c-27.12-27.06-54.23-54.12-81.27-81.27c-6.49-6.51-14.01-9.56-23.07-7.46
	c-8.62,1.99-14.46,7.43-17.03,15.9c-2.77,9.12-0.32,17.09,6.35,23.77c25.19,25.22,50.39,50.43,75.63,75.59
	C618.36,367.98,620.05,368.84,622.47,370.54z"/>
<path class="st0" d="M622.47,370.54c-2.42-1.7-4.11-2.56-5.38-3.83c-25.24-25.17-50.44-50.37-75.63-75.59
	c-6.68-6.68-9.12-14.65-6.35-23.77c2.57-8.47,8.41-13.91,17.03-15.9c9.06-2.09,16.59,0.95,23.07,7.46
	c27.04,27.14,54.14,54.21,81.27,81.27c4.48,4.46,9.1,8.79,13.75,13.06c10.03,9.22,10.26,25.36,0.52,34.83
	c-11.46,11.14-22.92,22.28-34.26,33.55c-20.9,20.79-41.61,41.77-62.59,62.49c-13.16,12.99-34.27,7.86-39.23-9.45
	c-2.66-9.29,0-17.26,6.89-24.11c25.16-25.02,50.19-50.15,75.3-75.23C618.14,374.03,619.64,372.94,622.47,370.54z"/>
</svg>
