<?xml version="1.0" encoding="utf-8"?>
<!-- Generator: Adobe Illustrator 24.0.1, SVG Export Plug-In . SVG Version: 6.00 Build 0)  -->
<svg version="1.1" id="Calque_1" xmlns="http://www.w3.org/2000/svg" xmlns:xlink="http://www.w3.org/1999/xlink" x="0px" y="0px"
	 viewBox="0 0 1190.55 841.89" style="enable-background:new 0 0 1190.55 841.89;" xml:space="preserve">
<style type="text/css">
	.st0{fill:#FFFFFF;}
</style>
<path d="M324.72,370.91c-0.01-149.2,120.88-270.17,270.12-270.3c149.32-0.12,270.64,121.22,270.44,270.5
	c-0.2,149.22-121.29,270.17-270.39,270.07C445.67,641.07,324.73,520.09,324.72,370.91z M565.12,370.55
	c2.56-1.92,4.33-2.95,5.73-4.35c27.37-27.31,54.74-54.6,82-82.02c10.87-10.93,10.99-27.16,0.62-37.65
	c-10.27-10.38-26.73-10.68-37.28-0.19c-35.45,35.25-70.8,70.6-106.04,106.05c-10.35,10.41-10.4,26.47-0.04,36.91
	c35.34,35.59,70.84,71.03,106.39,106.42c6.61,6.58,14.94,8.71,23.99,6.65c9.87-2.25,16.55-8.46,19.44-18.18
	c3.01-10.15,0.41-19.14-7.02-26.59c-25.17-25.26-50.39-50.47-75.64-75.66C573.73,378.42,570,375.11,565.12,370.55z"/>
<path class="st0" d="M565.12,370.55c4.87,4.56,8.61,7.87,12.14,11.39c25.24,25.19,50.47,50.4,75.64,75.66
	c7.43,7.45,10.03,16.45,7.02,26.59c-2.88,9.72-9.56,15.93-19.44,18.18c-9.05,2.06-17.38-0.07-23.99-6.65
	c-35.55-35.39-71.04-70.83-106.39-106.42c-10.36-10.44-10.31-26.5,0.04-36.91c35.24-35.45,70.6-70.8,106.04-106.05
	c10.56-10.5,27.01-10.2,37.28,0.19c10.37,10.49,10.25,26.72-0.62,37.65c-27.25,27.42-54.63,54.71-82,82.02
	C569.45,367.59,567.68,368.62,565.12,370.55z"/>
</svg>
